<?xml version="1.0" encoding="utf-8" standalone="no"?>
<!DOCTYPE svg PUBLIC "-//W3C//DTD SVG 1.1//EN"
  "http://www.w3.org/Graphics/SVG/1.1/DTD/svg11.dtd">
<svg xmlns:xlink="http://www.w3.org/1999/xlink" width="886.05828pt" height="520.02pt" viewBox="0 0 886.05828 520.02" xmlns="http://www.w3.org/2000/svg" version="1.1">
 <metadata>
  <rdf:RDF xmlns:dc="http://purl.org/dc/elements/1.1/" xmlns:cc="http://creativecommons.org/ns#" xmlns:rdf="http://www.w3.org/1999/02/22-rdf-syntax-ns#">
   <cc:Work>
    <dc:type rdf:resource="http://purl.org/dc/dcmitype/StillImage"/>
    <dc:date>2026-09-03T21:44:09.751840</dc:date>
    <dc:format>image/svg+xml</dc:format>
    <dc:creator>
     <cc:Agent>
      <dc:title>Matplotlib v3.10.9, https://matplotlib.org/</dc:title>
     </cc:Agent>
    </dc:creator>
   </cc:Work>
  </rdf:RDF>
 </metadata>
 <defs>
  <style type="text/css">*{stroke-linejoin: round; stroke-linecap: butt}</style>
 </defs>
 <g id="figure_1">
  <g id="patch_1">
   <path d="M -0 520.02 
L 886.05828 520.02 
L 886.05828 0 
L -0 0 
z
" style="fill: #ffffff"/>
  </g>
  <g id="axes_1">
   <g id="patch_2">
    <path d="M 253.43388 437.94 
L 877.41828 437.94 
L 877.41828 81.54 
L 253.43388 81.54 
z
" style="fill: #efefef"/>
   </g>
   <g id="matplotlib.axis_1">
    <g id="xtick_1">
     <g id="line2d_1">
      <path d="M 355.840846 437.94 
L 355.840846 81.54 
" clip-path="url(#paf15b2a872)" style="fill: none; stroke: #ffffff; stroke-linecap: square"/>
     </g>
     <g id="line2d_2"/>
     <g id="text_1">
      <text style="font-size: 12px; font-family: 'Arial'; text-anchor: middle" x="355.840846" y="450.029375" transform="rotate(-0 355.840846 450.029375)">−4</text>
     </g>
    </g>
    <g id="xtick_2">
     <g id="line2d_3">
      <path d="M 469.39133 437.94 
L 469.39133 81.54 
" clip-path="url(#paf15b2a872)" style="fill: none; stroke: #ffffff; stroke-linecap: square"/>
     </g>
     <g id="line2d_4"/>
     <g id="text_2">
      <text style="font-size: 12px; font-family: 'Arial'; text-anchor: middle" x="469.39133" y="450.029375" transform="rotate(-0 469.39133 450.029375)">−2</text>
     </g>
    </g>
    <g id="xtick_3">
     <g id="line2d_5">
      <path d="M 582.941815 437.94 
L 582.941815 81.54 
" clip-path="url(#paf15b2a872)" style="fill: none; stroke: #ffffff; stroke-linecap: square"/>
     </g>
     <g id="line2d_6"/>
     <g id="text_3">
      <text style="font-size: 12px; font-family: 'Arial'; text-anchor: middle" x="582.941815" y="450.029375" transform="rotate(-0 582.941815 450.029375)">0</text>
     </g>
    </g>
    <g id="xtick_4">
     <g id="line2d_7">
      <path d="M 696.492299 437.94 
L 696.492299 81.54 
" clip-path="url(#paf15b2a872)" style="fill: none; stroke: #ffffff; stroke-linecap: square"/>
     </g>
     <g id="line2d_8"/>
     <g id="text_4">
      <text style="font-size: 12px; font-family: 'Arial'; text-anchor: middle" x="696.492299" y="450.029375" transform="rotate(-0 696.492299 450.029375)">2</text>
     </g>
    </g>
    <g id="xtick_5">
     <g id="line2d_9">
      <path d="M 810.042784 437.94 
L 810.042784 81.54 
" clip-path="url(#paf15b2a872)" style="fill: none; stroke: #ffffff; stroke-linecap: square"/>
     </g>
     <g id="line2d_10"/>
     <g id="text_5">
      <text style="font-size: 12px; font-family: 'Arial'; text-anchor: middle" x="810.042784" y="450.029375" transform="rotate(-0 810.042784 450.029375)">4</text>
     </g>
    </g>
    <g id="text_6">
     <text style="font-size: 12px; font-family: 'Arial'; text-anchor: middle" x="565.42608" y="465.15" transform="rotate(-0 565.42608 465.15)">Change in share of regulatory-policy activity (percentage points)</text>
    </g>
   </g>
   <g id="matplotlib.axis_2">
    <g id="ytick_1">
     <g id="line2d_11"/>
     <g id="text_7">
      <text style="font-size: 12px; font-family: 'Arial'; text-anchor: end" x="249.93388" y="419.334293" transform="rotate(-0 249.93388 419.334293)">Disinformation and information integrity</text>
     </g>
    </g>
    <g id="ytick_2">
     <g id="line2d_12"/>
     <g id="text_8">
      <text style="font-size: 12px; font-family: 'Arial'; text-anchor: end" x="249.93388" y="391.111297" transform="rotate(-0 249.93388 391.111297)">AI safety and risk management</text>
     </g>
    </g>
    <g id="ytick_3">
     <g id="line2d_13"/>
     <g id="text_9">
      <text style="font-size: 12px; font-family: 'Arial'; text-anchor: end" x="249.93388" y="362.8883" transform="rotate(-0 249.93388 362.8883)">Algorithmic fairness and bias governance</text>
     </g>
    </g>
    <g id="ytick_4">
     <g id="line2d_14"/>
     <g id="text_10">
      <text style="font-size: 12px; font-family: 'Arial'; text-anchor: end" x="249.93388" y="334.592179" transform="rotate(-0 249.93388 334.592179)">International AI governance coordination</text>
     </g>
    </g>
    <g id="ytick_5">
     <g id="line2d_15"/>
     <g id="text_11">
      <text style="font-size: 12px; font-family: 'Arial'; text-anchor: end" x="249.93388" y="306.369182" transform="rotate(-0 249.93388 306.369182)">Algorithmic transparency and accountability</text>
     </g>
    </g>
    <g id="ytick_6">
     <g id="line2d_16"/>
     <g id="text_12">
      <text style="font-size: 12px; font-family: 'Arial'; text-anchor: end" x="249.93388" y="278.146186" transform="rotate(-0 249.93388 278.146186)">Data protection and privacy</text>
     </g>
    </g>
    <g id="ytick_7">
     <g id="line2d_17"/>
     <g id="text_13">
      <text style="font-size: 12px; font-family: 'Arial'; text-anchor: end" x="249.93388" y="249.923189" transform="rotate(-0 249.93388 249.923189)">AI cybersecurity and resilience</text>
     </g>
    </g>
    <g id="ytick_8">
     <g id="line2d_18"/>
     <g id="text_14">
      <text style="font-size: 12px; font-family: 'Arial'; text-anchor: end" x="249.93388" y="221.700193" transform="rotate(-0 249.93388 221.700193)">Institutional AI governance</text>
     </g>
    </g>
    <g id="ytick_9">
     <g id="line2d_19"/>
     <g id="text_15">
      <text style="font-size: 12px; font-family: 'Arial'; text-anchor: end" x="249.93388" y="193.477196" transform="rotate(-0 249.93388 193.477196)">Risk-based AI regulation and oversight</text>
     </g>
    </g>
    <g id="ytick_10">
     <g id="line2d_20"/>
     <g id="text_16">
      <text style="font-size: 12px; font-family: 'Arial'; text-anchor: end" x="249.93388" y="165.2542" transform="rotate(-0 249.93388 165.2542)">AI ethics and human-centered governance</text>
     </g>
    </g>
    <g id="ytick_11">
     <g id="line2d_21"/>
     <g id="text_17">
      <text style="font-size: 12px; font-family: 'Arial'; text-anchor: end" x="249.93388" y="137.031203" transform="rotate(-0 249.93388 137.031203)">Responsible AI and compliance</text>
     </g>
    </g>
    <g id="ytick_12">
     <g id="line2d_22"/>
     <g id="text_18">
      <text style="font-size: 12px; font-family: 'Arial'; text-anchor: end" x="249.93388" y="108.808207" transform="rotate(-0 249.93388 108.808207)">AI, rights, and biometrics</text>
     </g>
    </g>
   </g>
   <g id="LineCollection_1">
    <path d="M 572.032718 414.966481 
L 686.57035 414.966481 
" clip-path="url(#paf15b2a872)" style="fill: none; stroke: #cfcfcf; stroke-width: 6"/>
    <path d="M 537.692437 386.743484 
L 672.888599 386.743484 
" clip-path="url(#paf15b2a872)" style="fill: none; stroke: #cfcfcf; stroke-width: 6"/>
    <path d="M 508.132017 358.520488 
L 617.558572 358.520488 
" clip-path="url(#paf15b2a872)" style="fill: none; stroke: #cfcfcf; stroke-width: 6"/>
    <path d="M 525.23829 330.297491 
L 631.539194 330.297491 
" clip-path="url(#paf15b2a872)" style="fill: none; stroke: #cfcfcf; stroke-width: 6"/>
    <path d="M 537.450989 302.074495 
L 663.894126 302.074495 
" clip-path="url(#paf15b2a872)" style="fill: none; stroke: #cfcfcf; stroke-width: 6"/>
    <path d="M 507.400877 273.851498 
L 662.474996 273.851498 
" clip-path="url(#paf15b2a872)" style="fill: none; stroke: #cfcfcf; stroke-width: 6"/>
    <path d="M 579.976096 245.628502 
L 668.232785 245.628502 
" clip-path="url(#paf15b2a872)" style="fill: none; stroke: #cfcfcf; stroke-width: 6"/>
    <path d="M 454.588559 217.405505 
L 643.687547 217.405505 
" clip-path="url(#paf15b2a872)" style="fill: none; stroke: #cfcfcf; stroke-width: 6"/>
    <path d="M 482.55888 189.182509 
L 769.609741 189.182509 
" clip-path="url(#paf15b2a872)" style="fill: none; stroke: #cfcfcf; stroke-width: 6"/>
    <path d="M 358.793389 160.959512 
L 619.53598 160.959512 
" clip-path="url(#paf15b2a872)" style="fill: none; stroke: #cfcfcf; stroke-width: 6"/>
    <path d="M 320.833008 132.736516 
L 736.346511 132.736516 
" clip-path="url(#paf15b2a872)" style="fill: none; stroke: #cfcfcf; stroke-width: 6"/>
    <path d="M 322.806048 104.513519 
L 788.411958 104.513519 
" clip-path="url(#paf15b2a872)" style="fill: none; stroke: #cfcfcf; stroke-width: 6"/>
   </g>
   <g id="line2d_23">
    <path d="M 582.941815 437.94 
L 582.941815 81.54 
" clip-path="url(#paf15b2a872)" style="fill: none; stroke: #333333; stroke-linecap: square"/>
   </g>
   <g id="patch_3">
    <path d="M 253.43388 437.94 
L 253.43388 81.54 
" style="fill: none; stroke: #333333; stroke-width: 0.8; stroke-linejoin: miter; stroke-linecap: square"/>
   </g>
   <g id="patch_4">
    <path d="M 253.43388 437.94 
L 877.41828 437.94 
" style="fill: none; stroke: #333333; stroke-width: 0.8; stroke-linejoin: miter; stroke-linecap: square"/>
   </g>
   <g id="PathCollection_1">
    <defs>
     <path id="m5307599fcf" d="M -3.464102 3.464102 
L 3.464102 3.464102 
L 3.464102 -3.464102 
L -3.464102 -3.464102 
z
" style="stroke: #ffffff; stroke-width: 0.5"/>
    </defs>
    <g clip-path="url(#paf15b2a872)">
     <use xlink:href="#m5307599fcf" x="617.184735" y="421.74" style="fill: #f05a00; stroke: #ffffff; stroke-width: 0.5"/>
     <use xlink:href="#m5307599fcf" x="604.755576" y="393.517003" style="fill: #f05a00; stroke: #ffffff; stroke-width: 0.5"/>
     <use xlink:href="#m5307599fcf" x="567.141069" y="365.294007" style="fill: #f05a00; stroke: #ffffff; stroke-width: 0.5"/>
     <use xlink:href="#m5307599fcf" x="566.304576" y="337.07101" style="fill: #f05a00; stroke: #ffffff; stroke-width: 0.5"/>
     <use xlink:href="#m5307599fcf" x="607.711654" y="308.848014" style="fill: #f05a00; stroke: #ffffff; stroke-width: 0.5"/>
     <use xlink:href="#m5307599fcf" x="580.735681" y="280.625017" style="fill: #f05a00; stroke: #ffffff; stroke-width: 0.5"/>
     <use xlink:href="#m5307599fcf" x="627.669761" y="252.402021" style="fill: #f05a00; stroke: #ffffff; stroke-width: 0.5"/>
     <use xlink:href="#m5307599fcf" x="572.591539" y="224.179024" style="fill: #f05a00; stroke: #ffffff; stroke-width: 0.5"/>
     <use xlink:href="#m5307599fcf" x="594.376229" y="195.956028" style="fill: #f05a00; stroke: #ffffff; stroke-width: 0.5"/>
     <use xlink:href="#m5307599fcf" x="519.821916" y="167.733031" style="fill: #f05a00; stroke: #ffffff; stroke-width: 0.5"/>
     <use xlink:href="#m5307599fcf" x="543.513796" y="139.510035" style="fill: #f05a00; stroke: #ffffff; stroke-width: 0.5"/>
     <use xlink:href="#m5307599fcf" x="594.923618" y="111.287038" style="fill: #f05a00; stroke: #ffffff; stroke-width: 0.5"/>
    </g>
   </g>
   <g id="PathCollection_2">
    <defs>
     <path id="mc6e4db9e95" d="M -0 4.898979 
L 4.898979 0 
L 0 -4.898979 
L -4.898979 -0 
z
" style="stroke: #ffffff; stroke-width: 0.5"/>
    </defs>
    <g clip-path="url(#paf15b2a872)">
     <use xlink:href="#mc6e4db9e95" x="623.612571" y="419.030592" style="fill: #7ea6d6; stroke: #ffffff; stroke-width: 0.5"/>
     <use xlink:href="#mc6e4db9e95" x="585.934927" y="390.807596" style="fill: #7ea6d6; stroke: #ffffff; stroke-width: 0.5"/>
     <use xlink:href="#mc6e4db9e95" x="550.062971" y="362.584599" style="fill: #7ea6d6; stroke: #ffffff; stroke-width: 0.5"/>
     <use xlink:href="#mc6e4db9e95" x="549.298905" y="334.361603" style="fill: #7ea6d6; stroke: #ffffff; stroke-width: 0.5"/>
     <use xlink:href="#mc6e4db9e95" x="650.394154" y="306.138606" style="fill: #7ea6d6; stroke: #ffffff; stroke-width: 0.5"/>
     <use xlink:href="#mc6e4db9e95" x="609.756361" y="277.91561" style="fill: #7ea6d6; stroke: #ffffff; stroke-width: 0.5"/>
     <use xlink:href="#mc6e4db9e95" x="627.291005" y="249.692613" style="fill: #7ea6d6; stroke: #ffffff; stroke-width: 0.5"/>
     <use xlink:href="#mc6e4db9e95" x="587.73653" y="221.469617" style="fill: #7ea6d6; stroke: #ffffff; stroke-width: 0.5"/>
     <use xlink:href="#mc6e4db9e95" x="633.406108" y="193.24662" style="fill: #7ea6d6; stroke: #ffffff; stroke-width: 0.5"/>
     <use xlink:href="#mc6e4db9e95" x="477.074641" y="165.023624" style="fill: #7ea6d6; stroke: #ffffff; stroke-width: 0.5"/>
     <use xlink:href="#mc6e4db9e95" x="469.107331" y="136.800627" style="fill: #7ea6d6; stroke: #ffffff; stroke-width: 0.5"/>
     <use xlink:href="#mc6e4db9e95" x="632.022138" y="108.577631" style="fill: #7ea6d6; stroke: #ffffff; stroke-width: 0.5"/>
    </g>
   </g>
   <g id="PathCollection_3">
    <defs>
     <path id="m393efc947d" d="M 0 3 
C 0.795609 3 1.55874 2.683901 2.12132 2.12132 
C 2.683901 1.55874 3 0.795609 3 0 
C 3 -0.795609 2.683901 -1.55874 2.12132 -2.12132 
C 1.55874 -2.683901 0.795609 -3 0 -3 
C -0.795609 -3 -1.55874 -2.683901 -2.12132 -2.12132 
C -2.683901 -1.55874 -3 -0.795609 -3 0 
C -3 0.795609 -2.683901 1.55874 -2.12132 2.12132 
C -1.55874 2.683901 -0.795609 3 0 3 
z
" style="stroke: #ffffff; stroke-width: 0.5"/>
    </defs>
    <g clip-path="url(#paf15b2a872)">
     <use xlink:href="#m393efc947d" x="606.707517" y="416.321185" style="fill: #08306b; stroke: #ffffff; stroke-width: 0.5"/>
     <use xlink:href="#m393efc947d" x="607.201636" y="388.098188" style="fill: #08306b; stroke: #ffffff; stroke-width: 0.5"/>
     <use xlink:href="#m393efc947d" x="507.344194" y="359.875192" style="fill: #08306b; stroke: #ffffff; stroke-width: 0.5"/>
     <use xlink:href="#m393efc947d" x="618.142369" y="331.652195" style="fill: #08306b; stroke: #ffffff; stroke-width: 0.5"/>
     <use xlink:href="#m393efc947d" x="554.384056" y="303.429199" style="fill: #08306b; stroke: #ffffff; stroke-width: 0.5"/>
     <use xlink:href="#m393efc947d" x="568.11213" y="275.206202" style="fill: #08306b; stroke: #ffffff; stroke-width: 0.5"/>
     <use xlink:href="#m393efc947d" x="659.659822" y="246.983206" style="fill: #08306b; stroke: #ffffff; stroke-width: 0.5"/>
     <use xlink:href="#m393efc947d" x="600.455901" y="218.760209" style="fill: #08306b; stroke: #ffffff; stroke-width: 0.5"/>
     <use xlink:href="#m393efc947d" x="561.334822" y="190.537213" style="fill: #08306b; stroke: #ffffff; stroke-width: 0.5"/>
     <use xlink:href="#m393efc947d" x="568.644482" y="162.314216" style="fill: #08306b; stroke: #ffffff; stroke-width: 0.5"/>
     <use xlink:href="#m393efc947d" x="666.448711" y="134.09122" style="fill: #08306b; stroke: #ffffff; stroke-width: 0.5"/>
     <use xlink:href="#m393efc947d" x="453.366747" y="105.868223" style="fill: #08306b; stroke: #ffffff; stroke-width: 0.5"/>
    </g>
   </g>
   <g id="PathCollection_4">
    <defs>
     <path id="m0a93c03f46" d="M 0 3 
C 0.795609 3 1.55874 2.683901 2.12132 2.12132 
C 2.683901 1.55874 3 0.795609 3 0 
C 3 -0.795609 2.683901 -1.55874 2.12132 -2.12132 
C 1.55874 -2.683901 0.795609 -3 0 -3 
C -0.795609 -3 -1.55874 -2.683901 -2.12132 -2.12132 
C -2.683901 -1.55874 -3 -0.795609 -3 0 
C -3 0.795609 -2.683901 1.55874 -2.12132 2.12132 
C -1.55874 2.683901 -0.795609 3 0 3 
z
" style="stroke: #ffffff; stroke-width: 0.5"/>
    </defs>
    <g clip-path="url(#paf15b2a872)">
     <use xlink:href="#m0a93c03f46" x="614.855912" y="413.611777" style="fill: #c9474d; stroke: #ffffff; stroke-width: 0.5"/>
     <use xlink:href="#m0a93c03f46" x="517.384049" y="385.38878" style="fill: #c9474d; stroke: #ffffff; stroke-width: 0.5"/>
     <use xlink:href="#m0a93c03f46" x="580.771321" y="357.165784" style="fill: #c9474d; stroke: #ffffff; stroke-width: 0.5"/>
     <use xlink:href="#m0a93c03f46" x="639.401703" y="328.942787" style="fill: #c9474d; stroke: #ffffff; stroke-width: 0.5"/>
     <use xlink:href="#m0a93c03f46" x="535.569538" y="300.719791" style="fill: #c9474d; stroke: #ffffff; stroke-width: 0.5"/>
     <use xlink:href="#m0a93c03f46" x="455.946561" y="272.496794" style="fill: #c9474d; stroke: #ffffff; stroke-width: 0.5"/>
     <use xlink:href="#m0a93c03f46" x="634.203043" y="244.273798" style="fill: #c9474d; stroke: #ffffff; stroke-width: 0.5"/>
     <use xlink:href="#m0a93c03f46" x="707.822355" y="216.050801" style="fill: #c9474d; stroke: #ffffff; stroke-width: 0.5"/>
     <use xlink:href="#m0a93c03f46" x="493.467448" y="187.827805" style="fill: #c9474d; stroke: #ffffff; stroke-width: 0.5"/>
     <use xlink:href="#m0a93c03f46" x="661.069725" y="159.604808" style="fill: #c9474d; stroke: #ffffff; stroke-width: 0.5"/>
     <use xlink:href="#m0a93c03f46" x="849.055353" y="131.381812" style="fill: #c9474d; stroke: #ffffff; stroke-width: 0.5"/>
     <use xlink:href="#m0a93c03f46" x="281.796807" y="103.158815" style="fill: #c9474d; stroke: #ffffff; stroke-width: 0.5"/>
    </g>
   </g>
   <g id="PathCollection_5">
    <defs>
     <path id="m7b7e616309" d="M 0 3 
C 0.795609 3 1.55874 2.683901 2.12132 2.12132 
C 2.683901 1.55874 3 0.795609 3 0 
C 3 -0.795609 2.683901 -1.55874 2.12132 -2.12132 
C 1.55874 -2.683901 0.795609 -3 0 -3 
C -0.795609 -3 -1.55874 -2.683901 -2.12132 -2.12132 
C -2.683901 -1.55874 -3 -0.795609 -3 0 
C -3 0.795609 -2.683901 1.55874 -2.12132 2.12132 
C -1.55874 2.683901 -0.795609 3 0 3 
z
" style="stroke: #ffffff; stroke-width: 0.5"/>
    </defs>
    <g clip-path="url(#paf15b2a872)">
     <use xlink:href="#m7b7e616309" x="589.486391" y="410.902369" style="fill: #0877b9; stroke: #ffffff; stroke-width: 0.5"/>
     <use xlink:href="#m7b7e616309" x="536.623697" y="382.679373" style="fill: #0877b9; stroke: #ffffff; stroke-width: 0.5"/>
     <use xlink:href="#m7b7e616309" x="633.872275" y="354.456376" style="fill: #0877b9; stroke: #ffffff; stroke-width: 0.5"/>
     <use xlink:href="#m7b7e616309" x="624.460126" y="326.23338" style="fill: #0877b9; stroke: #ffffff; stroke-width: 0.5"/>
     <use xlink:href="#m7b7e616309" x="613.221243" y="298.010383" style="fill: #0877b9; stroke: #ffffff; stroke-width: 0.5"/>
     <use xlink:href="#m7b7e616309" x="632.176463" y="269.787387" style="fill: #0877b9; stroke: #ffffff; stroke-width: 0.5"/>
     <use xlink:href="#m7b7e616309" x="640.409764" y="241.56439" style="fill: #0877b9; stroke: #ffffff; stroke-width: 0.5"/>
     <use xlink:href="#m7b7e616309" x="451.010172" y="213.341394" style="fill: #0877b9; stroke: #ffffff; stroke-width: 0.5"/>
     <use xlink:href="#m7b7e616309" x="502.772291" y="185.118397" style="fill: #0877b9; stroke: #ffffff; stroke-width: 0.5"/>
     <use xlink:href="#m7b7e616309" x="531.764683" y="156.895401" style="fill: #0877b9; stroke: #ffffff; stroke-width: 0.5"/>
     <use xlink:href="#m7b7e616309" x="594.908218" y="128.672404" style="fill: #0877b9; stroke: #ffffff; stroke-width: 0.5"/>
     <use xlink:href="#m7b7e616309" x="529.524578" y="100.449408" style="fill: #0877b9; stroke: #ffffff; stroke-width: 0.5"/>
    </g>
   </g>
   <g id="PathCollection_6">
    <defs>
     <path id="m64eb76525b" d="M 0 3 
C 0.795609 3 1.55874 2.683901 2.12132 2.12132 
C 2.683901 1.55874 3 0.795609 3 0 
C 3 -0.795609 2.683901 -1.55874 2.12132 -2.12132 
C 1.55874 -2.683901 0.795609 -3 0 -3 
C -0.795609 -3 -1.55874 -2.683901 -2.12132 -2.12132 
C -2.683901 -1.55874 -3 -0.795609 -3 0 
C -3 0.795609 -2.683901 1.55874 -2.12132 2.12132 
C -1.55874 2.683901 -0.795609 3 0 3 
z
" style="stroke: #ffffff; stroke-width: 0.5"/>
    </defs>
    <g clip-path="url(#paf15b2a872)">
     <use xlink:href="#m64eb76525b" x="607.875743" y="408.192962" style="fill: #0b3b75; stroke: #ffffff; stroke-width: 0.5"/>
     <use xlink:href="#m64eb76525b" x="593.238066" y="379.969965" style="fill: #0b3b75; stroke: #ffffff; stroke-width: 0.5"/>
     <use xlink:href="#m64eb76525b" x="601.359043" y="351.746969" style="fill: #0b3b75; stroke: #ffffff; stroke-width: 0.5"/>
     <use xlink:href="#m64eb76525b" x="548.473" y="323.523972" style="fill: #0b3b75; stroke: #ffffff; stroke-width: 0.5"/>
     <use xlink:href="#m64eb76525b" x="618.51483" y="295.300976" style="fill: #0b3b75; stroke: #ffffff; stroke-width: 0.5"/>
     <use xlink:href="#m64eb76525b" x="553.02136" y="267.077979" style="fill: #0b3b75; stroke: #ffffff; stroke-width: 0.5"/>
     <use xlink:href="#m64eb76525b" x="579.434473" y="238.854983" style="fill: #0b3b75; stroke: #ffffff; stroke-width: 0.5"/>
     <use xlink:href="#m64eb76525b" x="592.28091" y="210.631986" style="fill: #0b3b75; stroke: #ffffff; stroke-width: 0.5"/>
     <use xlink:href="#m64eb76525b" x="535.867462" y="182.40899" style="fill: #0b3b75; stroke: #ffffff; stroke-width: 0.5"/>
     <use xlink:href="#m64eb76525b" x="589.084504" y="154.185993" style="fill: #0b3b75; stroke: #ffffff; stroke-width: 0.5"/>
     <use xlink:href="#m64eb76525b" x="562.730707" y="125.962997" style="fill: #0b3b75; stroke: #ffffff; stroke-width: 0.5"/>
     <use xlink:href="#m64eb76525b" x="589.470106" y="97.74" style="fill: #0b3b75; stroke: #ffffff; stroke-width: 0.5"/>
    </g>
   </g>
   <g id="legend_1">
    <g id="patch_5">
     <path d="M 485.267796 433.29 
L 870.90828 433.29 
Q 872.76828 433.29 872.76828 431.43 
L 872.76828 398.387391 
Q 872.76828 396.527391 870.90828 396.527391 
L 485.267796 396.527391 
Q 483.407796 396.527391 483.407796 398.387391 
L 483.407796 431.43 
Q 483.407796 433.29 485.267796 433.29 
z
" style="fill: #efefef; stroke: #efefef; stroke-linejoin: miter"/>
    </g>
    <g id="line2d_24">
     <path d="M 490.847796 407.4825 
L 509.447796 407.4825 
" style="fill: none; stroke: #cfcfcf; stroke-width: 6"/>
    </g>
    <g id="text_19">
     <text style="font-size: 9.3px; font-family: 'Arial'; text-anchor: start; fill: #111111" x="516.887796" y="410.7375" transform="rotate(-0 516.887796 410.7375)">Country p10-p90</text>
    </g>
    <g id="PathCollection_7">
     <g>
      <use xlink:href="#m5307599fcf" x="500.147796" y="421.560375" style="fill: #f05a00; stroke: #ffffff; stroke-width: 0.5"/>
     </g>
    </g>
    <g id="text_20">
     <text style="font-size: 9.3px; font-family: 'Arial'; text-anchor: start; fill: #111111" x="516.887796" y="424.001625" transform="rotate(-0 516.887796 424.001625)">OECD observed</text>
    </g>
    <g id="PathCollection_8">
     <g>
      <use xlink:href="#mc6e4db9e95" x="614.059717" y="408.29625" style="fill: #7ea6d6; stroke: #ffffff; stroke-width: 0.5"/>
     </g>
    </g>
    <g id="text_21">
     <text style="font-size: 9.3px; font-family: 'Arial'; text-anchor: start; fill: #111111" x="630.799717" y="410.7375" transform="rotate(-0 630.799717 410.7375)">EU members observed</text>
    </g>
    <g id="PathCollection_9">
     <g>
      <use xlink:href="#m393efc947d" x="614.059717" y="421.451391" style="fill: #08306b; stroke: #ffffff; stroke-width: 0.5"/>
     </g>
    </g>
    <g id="text_22">
     <text style="font-size: 9.3px; font-family: 'Arial'; text-anchor: start; fill: #111111" x="630.799717" y="423.892641" transform="rotate(-0 630.799717 423.892641)">United States</text>
    </g>
    <g id="PathCollection_10">
     <g>
      <use xlink:href="#m0a93c03f46" x="753.796577" y="408.29625" style="fill: #c9474d; stroke: #ffffff; stroke-width: 0.5"/>
     </g>
    </g>
    <g id="text_23">
     <text style="font-size: 9.3px; font-family: 'Arial'; text-anchor: start; fill: #111111" x="770.536577" y="410.7375" transform="rotate(-0 770.536577 410.7375)">China</text>
    </g>
    <g id="PathCollection_11">
     <g>
      <use xlink:href="#m7b7e616309" x="753.796577" y="421.451391" style="fill: #0877b9; stroke: #ffffff; stroke-width: 0.5"/>
     </g>
    </g>
    <g id="text_24">
     <text style="font-size: 9.3px; font-family: 'Arial'; text-anchor: start; fill: #111111" x="770.536577" y="423.892641" transform="rotate(-0 770.536577 423.892641)">Japan</text>
    </g>
    <g id="PathCollection_12">
     <g>
      <use xlink:href="#m64eb76525b" x="823.773264" y="408.29625" style="fill: #0b3b75; stroke: #ffffff; stroke-width: 0.5"/>
     </g>
    </g>
    <g id="text_25">
     <text style="font-size: 9.3px; font-family: 'Arial'; text-anchor: start; fill: #111111" x="840.513264" y="410.7375" transform="rotate(-0 840.513264 410.7375)">Korea</text>
    </g>
   </g>
  </g>
  <g id="text_26">
   <text style="font-weight: 700; font-size: 20px; font-family: 'Arial'; text-anchor: start; fill: #08306b" x="8.64" y="23.199375" transform="rotate(-0 8.64 23.199375)">Figure 2. Policy attention shifted unevenly after the generative-AI turn</text>
  </g>
  <g id="text_27">
   <text style="font-size: 12.5px; font-family: 'Arial'; text-anchor: start; fill: #111111" x="8.64" y="44.739609" transform="rotate(-0 8.64 44.739609)">Change in L2 topic shares, 2020-21 to 2025-26</text>
  </g>
  <g id="text_28">
   <text style="font-size: 8.5px; font-family: 'Arial'; text-anchor: start; fill: #111111" x="8.64" y="494.471016" transform="rotate(-0 8.64 494.471016)">Notes: Grey bars show the 10th-90th percentile range across countries observed in both periods. Group values are unweighted means of fixed observed members. 2026 is partial through 3 September.</text>
  </g>
  <g id="text_29">
   <text style="font-size: 8.5px; font-family: 'Arial'; text-anchor: start; fill: #111111" x="8.64" y="509.591016" transform="rotate(-0 8.64 509.591016)">Source: Digital Policy Alert, PATSTAT and Web of Science; author's calculations. Data and code: https://deep1003.github.io/assets/research/stpi-regulatory-attention-20260903/</text>
  </g>
 </g>
 <defs>
  <clipPath id="paf15b2a872">
   <rect x="253.43388" y="81.54" width="623.9844" height="356.4"/>
  </clipPath>
 </defs>
</svg>
