<?xml version="1.0" encoding="utf-8" standalone="no"?>
<!DOCTYPE svg PUBLIC "-//W3C//DTD SVG 1.1//EN"
  "http://www.w3.org/Graphics/SVG/1.1/DTD/svg11.dtd">
<svg xmlns:xlink="http://www.w3.org/1999/xlink" width="868.868248pt" height="520.02pt" viewBox="0 0 868.868248 520.02" xmlns="http://www.w3.org/2000/svg" version="1.1">
 <metadata>
  <rdf:RDF xmlns:dc="http://purl.org/dc/elements/1.1/" xmlns:cc="http://creativecommons.org/ns#" xmlns:rdf="http://www.w3.org/1999/02/22-rdf-syntax-ns#">
   <cc:Work>
    <dc:type rdf:resource="http://purl.org/dc/dcmitype/StillImage"/>
    <dc:date>2026-09-03T20:43:58.672509</dc:date>
    <dc:format>image/svg+xml</dc:format>
    <dc:creator>
     <cc:Agent>
      <dc:title>Matplotlib v3.10.9, https://matplotlib.org/</dc:title>
     </cc:Agent>
    </dc:creator>
   </cc:Work>
  </rdf:RDF>
 </metadata>
 <defs>
  <style type="text/css">*{stroke-linejoin: round; stroke-linecap: butt}</style>
 </defs>
 <g id="figure_1">
  <g id="patch_1">
   <path d="M 0 520.02 
L 868.868248 520.02 
L 868.868248 0 
L 0 0 
z
" style="fill: #ffffff"/>
  </g>
  <g id="axes_1">
   <g id="patch_2">
    <path d="M 54.09375 432.54 
L 850.87383 432.54 
L 850.87383 92.34 
L 54.09375 92.34 
z
" style="fill: #ffffff"/>
   </g>
   <g id="patch_3">
    <path d="M 379.310109 432.54 
L 850.87383 432.54 
L 850.87383 92.34 
L 379.310109 92.34 
z
" clip-path="url(#p446ca43362)" style="fill: #d9d9d9; opacity: 0.22; stroke: #d9d9d9; stroke-linejoin: miter"/>
   </g>
   <g id="matplotlib.axis_1">
    <g id="xtick_1">
     <g id="line2d_1"/>
     <g id="text_1">
      <text style="font-size: 12px; font-family: 'Arial'; text-anchor: middle" x="54.09375" y="444.629375" transform="rotate(-0 54.09375 444.629375)">2020</text>
     </g>
    </g>
    <g id="xtick_2">
     <g id="line2d_2"/>
     <g id="text_2">
      <text style="font-size: 12px; font-family: 'Arial'; text-anchor: middle" x="216.70193" y="444.629375" transform="rotate(-0 216.70193 444.629375)">2021</text>
     </g>
    </g>
    <g id="xtick_3">
     <g id="line2d_3"/>
     <g id="text_3">
      <text style="font-size: 12px; font-family: 'Arial'; text-anchor: middle" x="379.310109" y="444.629375" transform="rotate(-0 379.310109 444.629375)">2022</text>
     </g>
    </g>
    <g id="xtick_4">
     <g id="line2d_4"/>
     <g id="text_4">
      <text style="font-size: 12px; font-family: 'Arial'; text-anchor: middle" x="541.918289" y="444.629375" transform="rotate(-0 541.918289 444.629375)">2023</text>
     </g>
    </g>
    <g id="xtick_5">
     <g id="line2d_5"/>
     <g id="text_5">
      <text style="font-size: 12px; font-family: 'Arial'; text-anchor: middle" x="704.526468" y="444.629375" transform="rotate(-0 704.526468 444.629375)">2024</text>
     </g>
    </g>
   </g>
   <g id="matplotlib.axis_2">
    <g id="ytick_1">
     <g id="line2d_6">
      <path d="M 54.09375 419.208003 
L 850.87383 419.208003 
" clip-path="url(#p446ca43362)" style="fill: none; stroke: #e7e7e7; stroke-width: 0.8; stroke-linecap: square"/>
     </g>
     <g id="line2d_7"/>
     <g id="text_6">
      <text style="font-size: 12px; font-family: 'Arial'; text-anchor: end" x="50.59375" y="423.50269" transform="rotate(-0 50.59375 423.50269)">0</text>
     </g>
    </g>
    <g id="ytick_2">
     <g id="line2d_8">
      <path d="M 54.09375 373.604853 
L 850.87383 373.604853 
" clip-path="url(#p446ca43362)" style="fill: none; stroke: #e7e7e7; stroke-width: 0.8; stroke-linecap: square"/>
     </g>
     <g id="line2d_9"/>
     <g id="text_7">
      <text style="font-size: 12px; font-family: 'Arial'; text-anchor: end" x="50.59375" y="377.89954" transform="rotate(-0 50.59375 377.89954)">250</text>
     </g>
    </g>
    <g id="ytick_3">
     <g id="line2d_10">
      <path d="M 54.09375 328.001703 
L 850.87383 328.001703 
" clip-path="url(#p446ca43362)" style="fill: none; stroke: #e7e7e7; stroke-width: 0.8; stroke-linecap: square"/>
     </g>
     <g id="line2d_11"/>
     <g id="text_8">
      <text style="font-size: 12px; font-family: 'Arial'; text-anchor: end" x="50.59375" y="332.29639" transform="rotate(-0 50.59375 332.29639)">500</text>
     </g>
    </g>
    <g id="ytick_4">
     <g id="line2d_12">
      <path d="M 54.09375 282.398553 
L 850.87383 282.398553 
" clip-path="url(#p446ca43362)" style="fill: none; stroke: #e7e7e7; stroke-width: 0.8; stroke-linecap: square"/>
     </g>
     <g id="line2d_13"/>
     <g id="text_9">
      <text style="font-size: 12px; font-family: 'Arial'; text-anchor: end" x="50.59375" y="286.69324" transform="rotate(-0 50.59375 286.69324)">750</text>
     </g>
    </g>
    <g id="ytick_5">
     <g id="line2d_14">
      <path d="M 54.09375 236.795403 
L 850.87383 236.795403 
" clip-path="url(#p446ca43362)" style="fill: none; stroke: #e7e7e7; stroke-width: 0.8; stroke-linecap: square"/>
     </g>
     <g id="line2d_15"/>
     <g id="text_10">
      <text style="font-size: 12px; font-family: 'Arial'; text-anchor: end" x="50.59375" y="241.090091" transform="rotate(-0 50.59375 241.090091)">1000</text>
     </g>
    </g>
    <g id="ytick_6">
     <g id="line2d_16">
      <path d="M 54.09375 191.192253 
L 850.87383 191.192253 
" clip-path="url(#p446ca43362)" style="fill: none; stroke: #e7e7e7; stroke-width: 0.8; stroke-linecap: square"/>
     </g>
     <g id="line2d_17"/>
     <g id="text_11">
      <text style="font-size: 12px; font-family: 'Arial'; text-anchor: end" x="50.59375" y="195.486941" transform="rotate(-0 50.59375 195.486941)">1250</text>
     </g>
    </g>
    <g id="ytick_7">
     <g id="line2d_18">
      <path d="M 54.09375 145.589103 
L 850.87383 145.589103 
" clip-path="url(#p446ca43362)" style="fill: none; stroke: #e7e7e7; stroke-width: 0.8; stroke-linecap: square"/>
     </g>
     <g id="line2d_19"/>
     <g id="text_12">
      <text style="font-size: 12px; font-family: 'Arial'; text-anchor: end" x="50.59375" y="149.883791" transform="rotate(-0 50.59375 149.883791)">1500</text>
     </g>
    </g>
    <g id="ytick_8">
     <g id="line2d_20">
      <path d="M 54.09375 99.985954 
L 850.87383 99.985954 
" clip-path="url(#p446ca43362)" style="fill: none; stroke: #e7e7e7; stroke-width: 0.8; stroke-linecap: square"/>
     </g>
     <g id="line2d_21"/>
     <g id="text_13">
      <text style="font-size: 12px; font-family: 'Arial'; text-anchor: end" x="50.59375" y="104.280641" transform="rotate(-0 50.59375 104.280641)">1750</text>
     </g>
    </g>
    <g id="text_14">
     <text style="font-size: 12px; font-family: 'Arial'; text-anchor: middle" x="17.375625" y="262.44" transform="rotate(-90 17.375625 262.44)">Index (2020 = 100)</text>
    </g>
   </g>
   <g id="line2d_22">
    <path d="M 54.09375 400.966743 
L 216.70193 396.502023 
L 379.310109 390.781009 
L 541.918289 389.102368 
L 704.526468 381.313087 
" clip-path="url(#p446ca43362)" style="fill: none; stroke: #70ad47; stroke-width: 3; stroke-linecap: square"/>
    <defs>
     <path id="me9156651f7" d="M 0 3 
C 0.795609 3 1.55874 2.683901 2.12132 2.12132 
C 2.683901 1.55874 3 0.795609 3 0 
C 3 -0.795609 2.683901 -1.55874 2.12132 -2.12132 
C 1.55874 -2.683901 0.795609 -3 0 -3 
C -0.795609 -3 -1.55874 -2.683901 -2.12132 -2.12132 
C -2.683901 -1.55874 -3 -0.795609 -3 0 
C -3 0.795609 -2.683901 1.55874 -2.12132 2.12132 
C -1.55874 2.683901 -0.795609 3 0 3 
z
" style="stroke: #70ad47"/>
    </defs>
    <g clip-path="url(#p446ca43362)">
     <use xlink:href="#me9156651f7" x="54.09375" y="400.966743" style="fill: #70ad47; stroke: #70ad47"/>
     <use xlink:href="#me9156651f7" x="216.70193" y="396.502023" style="fill: #70ad47; stroke: #70ad47"/>
     <use xlink:href="#me9156651f7" x="379.310109" y="390.781009" style="fill: #70ad47; stroke: #70ad47"/>
     <use xlink:href="#me9156651f7" x="541.918289" y="389.102368" style="fill: #70ad47; stroke: #70ad47"/>
     <use xlink:href="#me9156651f7" x="704.526468" y="381.313087" style="fill: #70ad47; stroke: #70ad47"/>
    </g>
   </g>
   <g id="line2d_23">
    <path d="M 54.09375 400.966743 
L 216.70193 404.223676 
L 379.310109 410.077235 
L 541.918289 414.520965 
L 704.526468 417.076364 
" clip-path="url(#p446ca43362)" style="fill: none; stroke: #17365d; stroke-width: 3; stroke-linecap: square"/>
    <defs>
     <path id="m215fd6dce8" d="M 0 3 
C 0.795609 3 1.55874 2.683901 2.12132 2.12132 
C 2.683901 1.55874 3 0.795609 3 0 
C 3 -0.795609 2.683901 -1.55874 2.12132 -2.12132 
C 1.55874 -2.683901 0.795609 -3 0 -3 
C -0.795609 -3 -1.55874 -2.683901 -2.12132 -2.12132 
C -2.683901 -1.55874 -3 -0.795609 -3 0 
C -3 0.795609 -2.683901 1.55874 -2.12132 2.12132 
C -1.55874 2.683901 -0.795609 3 0 3 
z
" style="stroke: #17365d"/>
    </defs>
    <g clip-path="url(#p446ca43362)">
     <use xlink:href="#m215fd6dce8" x="54.09375" y="400.966743" style="fill: #17365d; stroke: #17365d"/>
     <use xlink:href="#m215fd6dce8" x="216.70193" y="404.223676" style="fill: #17365d; stroke: #17365d"/>
     <use xlink:href="#m215fd6dce8" x="379.310109" y="410.077235" style="fill: #17365d; stroke: #17365d"/>
     <use xlink:href="#m215fd6dce8" x="541.918289" y="414.520965" style="fill: #17365d; stroke: #17365d"/>
     <use xlink:href="#m215fd6dce8" x="704.526468" y="417.076364" style="fill: #17365d; stroke: #17365d"/>
    </g>
   </g>
   <g id="line2d_24">
    <path d="M 54.09375 400.966743 
L 216.70193 374.9078 
L 379.310109 367.090117 
L 541.918289 237.664035 
L 704.526468 107.803636 
" clip-path="url(#p446ca43362)" style="fill: none; stroke: #4472c4; stroke-width: 3; stroke-linecap: square"/>
    <defs>
     <path id="mc633399ba2" d="M 0 3 
C 0.795609 3 1.55874 2.683901 2.12132 2.12132 
C 2.683901 1.55874 3 0.795609 3 0 
C 3 -0.795609 2.683901 -1.55874 2.12132 -2.12132 
C 1.55874 -2.683901 0.795609 -3 0 -3 
C -0.795609 -3 -1.55874 -2.683901 -2.12132 -2.12132 
C -2.683901 -1.55874 -3 -0.795609 -3 0 
C -3 0.795609 -2.683901 1.55874 -2.12132 2.12132 
C -1.55874 2.683901 -0.795609 3 0 3 
z
" style="stroke: #4472c4"/>
    </defs>
    <g clip-path="url(#p446ca43362)">
     <use xlink:href="#mc633399ba2" x="54.09375" y="400.966743" style="fill: #4472c4; stroke: #4472c4"/>
     <use xlink:href="#mc633399ba2" x="216.70193" y="374.9078" style="fill: #4472c4; stroke: #4472c4"/>
     <use xlink:href="#mc633399ba2" x="379.310109" y="367.090117" style="fill: #4472c4; stroke: #4472c4"/>
     <use xlink:href="#mc633399ba2" x="541.918289" y="237.664035" style="fill: #4472c4; stroke: #4472c4"/>
     <use xlink:href="#mc633399ba2" x="704.526468" y="107.803636" style="fill: #4472c4; stroke: #4472c4"/>
    </g>
   </g>
   <g id="line2d_25">
    <path d="M 54.09375 400.966743 
L 850.87383 400.966743 
" clip-path="url(#p446ca43362)" style="fill: none; stroke-dasharray: 2.96,1.28; stroke-dashoffset: 0; stroke: #898989; stroke-width: 0.8"/>
   </g>
   <g id="patch_4">
    <path d="M 54.09375 432.54 
L 54.09375 92.34 
" style="fill: none; stroke: #333333; stroke-width: 0.8; stroke-linejoin: miter; stroke-linecap: square"/>
   </g>
   <g id="patch_5">
    <path d="M 54.09375 432.54 
L 850.87383 432.54 
" style="fill: none; stroke: #333333; stroke-width: 0.8; stroke-linejoin: miter; stroke-linecap: square"/>
   </g>
   <g id="text_15">
    <text style="font-weight: 700; font-size: 12px; font-family: 'Arial'; text-anchor: start; fill: #70ad47" x="717.535123" y="384.496837" transform="rotate(-0 717.535123 384.496837)">Science publications</text>
   </g>
   <g id="text_16">
    <text style="font-weight: 700; font-size: 12px; font-family: 'Arial'; text-anchor: start; fill: #17365d" x="717.535123" y="420.108239" transform="rotate(-0 717.535123 420.108239)">Technology patents</text>
   </g>
   <g id="text_17">
    <text style="font-weight: 700; font-size: 12px; font-family: 'Arial'; text-anchor: start; fill: #4472c4" x="717.535123" y="110.835511" transform="rotate(-0 717.535123 110.835511)">Regulatory-policy events</text>
   </g>
   <g id="text_18">
    <text style="font-size: 10px; font-family: 'Arial'; text-anchor: middle; fill: #898989" x="615.09197" y="132.68153" transform="rotate(-0 615.09197 132.68153)">Patent counts increasingly incomplete</text>
   </g>
  </g>
  <g id="text_19">
   <text style="font-weight: 700; font-size: 20px; font-family: 'Arial'; text-anchor: start; fill: #4472c4" x="10.89483" y="23.199375" transform="rotate(-0 10.89483 23.199375)">Figure 4. Observed STP document volumes diverged after 2020</text>
  </g>
  <g id="text_20">
   <text style="font-size: 12.5px; font-family: 'Arial'; text-anchor: start; fill: #111111" x="10.89483" y="44.739609" transform="rotate(-0 10.89483 44.739609)">Science, technology and policy source records, 2020-24</text>
  </g>
  <g id="text_21">
   <text style="font-size: 8.5px; font-family: 'Arial'; text-anchor: start; fill: #111111" x="10.89483" y="494.471016" transform="rotate(-0 10.89483 494.471016)">Note: Series measure source-document volume, not capability quality or causal influence. Patent observations are increasingly right-truncated in recent years and must not be interpreted as a decline in technology capability.</text>
  </g>
  <g id="text_22">
   <text style="font-size: 8.5px; font-family: 'Arial'; text-anchor: start; fill: #111111" x="10.89483" y="509.591016" transform="rotate(-0 10.89483 509.591016)">Source: Digital Policy Alert, PATSTAT and Web of Science; author's calculations. Data and code: https://deep1003.github.io/assets/research/stpi-regulatory-attention-20260903/</text>
  </g>
 </g>
 <defs>
  <clipPath id="p446ca43362">
   <rect x="54.09375" y="92.34" width="796.78008" height="340.2"/>
  </clipPath>
 </defs>
</svg>
