<svg xmlns="http://www.w3.org/2000/svg" viewBox="0 0 720 252" width="100%" role="img" aria-labelledby="ti de"><title id="ti">Moral orientation and calibration</title><desc id="de">Coupled in human annotators, separable in judge LLMs.</desc><rect width="720" height="252" fill="#ffffff"/><defs><marker id="ah" viewBox="0 0 10 10" refX="9" refY="5" markerWidth="6" markerHeight="6" orient="auto-start-reverse"><path d="M 0 0 L 10 5 L 0 10 z" fill="#5a5a5a"/></marker></defs><text x="68" y="22" font-family="-apple-system,BlinkMacSystemFont,Segoe UI,Helvetica Neue,Arial,sans-serif" font-size="12" fill="#1a1a1a" font-weight="700" text-anchor="start">a</text><text x="84" y="22" font-family="-apple-system,BlinkMacSystemFont,Segoe UI,Helvetica Neue,Arial,sans-serif" font-size="11" fill="#5a5a5a" font-weight="400" text-anchor="start">Human annotators</text><rect x="76" y="38" width="142" height="142" rx="3" fill="#fbfbfb" stroke="#d8d8d8" stroke-width="1"/><line x1="111.5" y1="38" x2="111.5" y2="180" stroke="#d8d8d8" stroke-width="0.6"/><line x1="76" y1="73.5" x2="218" y2="73.5" stroke="#d8d8d8" stroke-width="0.6"/><line x1="147.0" y1="38" x2="147.0" y2="180" stroke="#d8d8d8" stroke-width="0.6"/><line x1="76" y1="109.0" x2="218" y2="109.0" stroke="#d8d8d8" stroke-width="0.6"/><line x1="182.5" y1="38" x2="182.5" y2="180" stroke="#d8d8d8" stroke-width="0.6"/><line x1="76" y1="144.5" x2="218" y2="144.5" stroke="#d8d8d8" stroke-width="0.6"/><circle cx="141.9" cy="136.6" r="2.9" fill="#1d6f5c" fill-opacity="0.62"/><circle cx="143.3" cy="121.6" r="2.9" fill="#1d6f5c" fill-opacity="0.62"/><circle cx="147.8" cy="114.0" r="2.9" fill="#1d6f5c" fill-opacity="0.62"/><circle cx="148.3" cy="111.3" r="2.9" fill="#1d6f5c" fill-opacity="0.62"/><circle cx="161.0" cy="93.7" r="2.9" fill="#1d6f5c" fill-opacity="0.62"/><circle cx="125.8" cy="134.8" r="2.9" fill="#1d6f5c" fill-opacity="0.62"/><circle cx="102.8" cy="147.2" r="2.9" fill="#1d6f5c" fill-opacity="0.62"/><circle cx="97.6" cy="171.5" r="2.9" fill="#1d6f5c" fill-opacity="0.62"/><circle cx="199.0" cy="46.5" r="2.9" fill="#1d6f5c" fill-opacity="0.62"/><circle cx="159.5" cy="99.9" r="2.9" fill="#1d6f5c" fill-opacity="0.62"/><circle cx="110.0" cy="133.0" r="2.9" fill="#1d6f5c" fill-opacity="0.62"/><circle cx="99.5" cy="155.3" r="2.9" fill="#1d6f5c" fill-opacity="0.62"/><circle cx="113.6" cy="142.3" r="2.9" fill="#1d6f5c" fill-opacity="0.62"/><circle cx="143.1" cy="110.3" r="2.9" fill="#1d6f5c" fill-opacity="0.62"/><circle cx="140.6" cy="108.3" r="2.9" fill="#1d6f5c" fill-opacity="0.62"/><circle cx="162.1" cy="104.6" r="2.9" fill="#1d6f5c" fill-opacity="0.62"/><circle cx="147.0" cy="115.2" r="2.9" fill="#1d6f5c" fill-opacity="0.62"/><circle cx="123.1" cy="143.0" r="2.9" fill="#1d6f5c" fill-opacity="0.62"/><circle cx="200.7" cy="46.5" r="2.9" fill="#1d6f5c" fill-opacity="0.62"/><circle cx="169.4" cy="87.1" r="2.9" fill="#1d6f5c" fill-opacity="0.62"/><circle cx="127.1" cy="127.8" r="2.9" fill="#1d6f5c" fill-opacity="0.62"/><circle cx="100.6" cy="146.7" r="2.9" fill="#1d6f5c" fill-opacity="0.62"/><circle cx="175.7" cy="97.0" r="2.9" fill="#1d6f5c" fill-opacity="0.62"/><circle cx="134.8" cy="109.2" r="2.9" fill="#1d6f5c" fill-opacity="0.62"/><circle cx="196.4" cy="59.4" r="2.9" fill="#1d6f5c" fill-opacity="0.62"/><circle cx="115.7" cy="140.6" r="2.9" fill="#1d6f5c" fill-opacity="0.62"/><circle cx="191.3" cy="94.1" r="2.9" fill="#1d6f5c" fill-opacity="0.62"/><circle cx="135.9" cy="114.5" r="2.9" fill="#1d6f5c" fill-opacity="0.62"/><circle cx="100.9" cy="167.8" r="2.9" fill="#1d6f5c" fill-opacity="0.62"/><circle cx="122.2" cy="147.3" r="2.9" fill="#1d6f5c" fill-opacity="0.62"/><circle cx="102.4" cy="167.2" r="2.9" fill="#1d6f5c" fill-opacity="0.62"/><circle cx="174.8" cy="57.3" r="2.9" fill="#1d6f5c" fill-opacity="0.62"/><circle cx="105.8" cy="150.1" r="2.9" fill="#1d6f5c" fill-opacity="0.62"/><circle cx="99.5" cy="151.6" r="2.9" fill="#1d6f5c" fill-opacity="0.62"/><circle cx="179.1" cy="71.0" r="2.9" fill="#1d6f5c" fill-opacity="0.62"/><circle cx="141.3" cy="102.4" r="2.9" fill="#1d6f5c" fill-opacity="0.62"/><circle cx="113.6" cy="143.0" r="2.9" fill="#1d6f5c" fill-opacity="0.62"/><circle cx="162.5" cy="99.1" r="2.9" fill="#1d6f5c" fill-opacity="0.62"/><circle cx="105.6" cy="156.9" r="2.9" fill="#1d6f5c" fill-opacity="0.62"/><circle cx="122.2" cy="130.3" r="2.9" fill="#1d6f5c" fill-opacity="0.62"/><circle cx="197.8" cy="55.2" r="2.9" fill="#1d6f5c" fill-opacity="0.62"/><circle cx="188.5" cy="76.0" r="2.9" fill="#1d6f5c" fill-opacity="0.62"/><circle cx="115.8" cy="156.7" r="2.9" fill="#1d6f5c" fill-opacity="0.62"/><circle cx="162.3" cy="80.8" r="2.9" fill="#1d6f5c" fill-opacity="0.62"/><circle cx="103.9" cy="144.8" r="2.9" fill="#1d6f5c" fill-opacity="0.62"/><circle cx="120.9" cy="135.6" r="2.9" fill="#1d6f5c" fill-opacity="0.62"/><line x1="90" y1="166" x2="204" y2="52" stroke="#1a1a1a" stroke-width="1.1" stroke-dasharray="4 3"/><text x="147.0" y="198" font-family="-apple-system,BlinkMacSystemFont,Segoe UI,Helvetica Neue,Arial,sans-serif" font-size="10" fill="#5a5a5a" font-weight="400" text-anchor="middle">moral orientation</text><text x="66" y="109.0" font-family="-apple-system,BlinkMacSystemFont,Segoe UI,Helvetica Neue,Arial,sans-serif" font-size="10" fill="#5a5a5a" text-anchor="middle" transform="rotate(-90 66 109.0)">moral calibration</text><text x="212" y="52" font-family="-apple-system,BlinkMacSystemFont,Segoe UI,Helvetica Neue,Arial,sans-serif" font-size="9.5" fill="#1a1a1a" font-weight="700" text-anchor="end">coupled</text><text x="428" y="22" font-family="-apple-system,BlinkMacSystemFont,Segoe UI,Helvetica Neue,Arial,sans-serif" font-size="12" fill="#1a1a1a" font-weight="700" text-anchor="start">b</text><text x="444" y="22" font-family="-apple-system,BlinkMacSystemFont,Segoe UI,Helvetica Neue,Arial,sans-serif" font-size="11" fill="#5a5a5a" font-weight="400" text-anchor="start">Judge LLMs</text><rect x="436" y="38" width="142" height="142" rx="3" fill="#fbfbfb" stroke="#d8d8d8" stroke-width="1"/><line x1="471.5" y1="38" x2="471.5" y2="180" stroke="#d8d8d8" stroke-width="0.6"/><line x1="436" y1="73.5" x2="578" y2="73.5" stroke="#d8d8d8" stroke-width="0.6"/><line x1="507.0" y1="38" x2="507.0" y2="180" stroke="#d8d8d8" stroke-width="0.6"/><line x1="436" y1="109.0" x2="578" y2="109.0" stroke="#d8d8d8" stroke-width="0.6"/><line x1="542.5" y1="38" x2="542.5" y2="180" stroke="#d8d8d8" stroke-width="0.6"/><line x1="436" y1="144.5" x2="578" y2="144.5" stroke="#d8d8d8" stroke-width="0.6"/><circle cx="512.2" cy="125.6" r="2.9" fill="#1f497d" fill-opacity="0.62"/><circle cx="544.2" cy="131.8" r="2.9" fill="#1f497d" fill-opacity="0.62"/><circle cx="508.1" cy="125.9" r="2.9" fill="#1f497d" fill-opacity="0.62"/><circle cx="497.9" cy="57.9" r="2.9" fill="#1f497d" fill-opacity="0.62"/><circle cx="464.2" cy="115.0" r="2.9" fill="#1f497d" fill-opacity="0.62"/><circle cx="477.3" cy="125.2" r="2.9" fill="#1f497d" fill-opacity="0.62"/><circle cx="560.8" cy="127.4" r="2.9" fill="#1f497d" fill-opacity="0.62"/><circle cx="518.6" cy="117.7" r="2.9" fill="#1f497d" fill-opacity="0.62"/><circle cx="531.9" cy="114.7" r="2.9" fill="#1f497d" fill-opacity="0.62"/><circle cx="471.4" cy="116.1" r="2.9" fill="#1f497d" fill-opacity="0.62"/><circle cx="497.1" cy="77.4" r="2.9" fill="#1f497d" fill-opacity="0.62"/><circle cx="513.8" cy="141.8" r="2.9" fill="#1f497d" fill-opacity="0.62"/><circle cx="525.8" cy="130.8" r="2.9" fill="#1f497d" fill-opacity="0.62"/><circle cx="508.3" cy="139.2" r="2.9" fill="#1f497d" fill-opacity="0.62"/><circle cx="497.4" cy="78.1" r="2.9" fill="#1f497d" fill-opacity="0.62"/><circle cx="508.7" cy="81.8" r="2.9" fill="#1f497d" fill-opacity="0.62"/><circle cx="534.7" cy="99.6" r="2.9" fill="#1f497d" fill-opacity="0.62"/><circle cx="522.7" cy="120.1" r="2.9" fill="#1f497d" fill-opacity="0.62"/><circle cx="519.7" cy="79.1" r="2.9" fill="#1f497d" fill-opacity="0.62"/><circle cx="463.7" cy="61.8" r="2.9" fill="#1f497d" fill-opacity="0.62"/><circle cx="492.7" cy="147.9" r="2.9" fill="#1f497d" fill-opacity="0.62"/><circle cx="469.2" cy="126.2" r="2.9" fill="#1f497d" fill-opacity="0.62"/><circle cx="460.5" cy="120.0" r="2.9" fill="#1f497d" fill-opacity="0.62"/><circle cx="497.8" cy="92.2" r="2.9" fill="#1f497d" fill-opacity="0.62"/><circle cx="503.4" cy="62.0" r="2.9" fill="#1f497d" fill-opacity="0.62"/><circle cx="524.2" cy="128.3" r="2.9" fill="#1f497d" fill-opacity="0.62"/><circle cx="547.5" cy="87.5" r="2.9" fill="#1f497d" fill-opacity="0.62"/><circle cx="557.4" cy="83.7" r="2.9" fill="#1f497d" fill-opacity="0.62"/><circle cx="557.3" cy="140.8" r="2.9" fill="#1f497d" fill-opacity="0.62"/><circle cx="483.1" cy="58.0" r="2.9" fill="#1f497d" fill-opacity="0.62"/><circle cx="455.4" cy="63.3" r="2.9" fill="#1f497d" fill-opacity="0.62"/><circle cx="551.3" cy="148.3" r="2.9" fill="#1f497d" fill-opacity="0.62"/><circle cx="469.3" cy="64.1" r="2.9" fill="#1f497d" fill-opacity="0.62"/><circle cx="556.6" cy="69.1" r="2.9" fill="#1f497d" fill-opacity="0.62"/><circle cx="531.2" cy="81.0" r="2.9" fill="#1f497d" fill-opacity="0.62"/><circle cx="486.3" cy="162.2" r="2.9" fill="#1f497d" fill-opacity="0.62"/><circle cx="520.8" cy="67.8" r="2.9" fill="#1f497d" fill-opacity="0.62"/><circle cx="555.5" cy="107.4" r="2.9" fill="#1f497d" fill-opacity="0.62"/><circle cx="453.9" cy="144.1" r="2.9" fill="#1f497d" fill-opacity="0.62"/><circle cx="501.5" cy="138.1" r="2.9" fill="#1f497d" fill-opacity="0.62"/><circle cx="456.0" cy="142.2" r="2.9" fill="#1f497d" fill-opacity="0.62"/><circle cx="507.0" cy="149.3" r="2.9" fill="#1f497d" fill-opacity="0.62"/><circle cx="465.2" cy="145.1" r="2.9" fill="#1f497d" fill-opacity="0.62"/><circle cx="456.7" cy="78.4" r="2.9" fill="#1f497d" fill-opacity="0.62"/><circle cx="546.5" cy="141.2" r="2.9" fill="#1f497d" fill-opacity="0.62"/><circle cx="521.5" cy="68.4" r="2.9" fill="#1f497d" fill-opacity="0.62"/><text x="507.0" y="198" font-family="-apple-system,BlinkMacSystemFont,Segoe UI,Helvetica Neue,Arial,sans-serif" font-size="10" fill="#5a5a5a" font-weight="400" text-anchor="middle">moral orientation</text><text x="426" y="109.0" font-family="-apple-system,BlinkMacSystemFont,Segoe UI,Helvetica Neue,Arial,sans-serif" font-size="10" fill="#5a5a5a" text-anchor="middle" transform="rotate(-90 426 109.0)">moral calibration</text><text x="572" y="52" font-family="-apple-system,BlinkMacSystemFont,Segoe UI,Helvetica Neue,Arial,sans-serif" font-size="9.5" fill="#1a1a1a" font-weight="700" text-anchor="end">separable</text><line x1="14" y1="212" x2="706" y2="212" stroke="#d8d8d8" stroke-width="1"/><text x="16" y="230" font-family="-apple-system,BlinkMacSystemFont,Segoe UI,Helvetica Neue,Arial,sans-serif" font-size="10" fill="#8a8a8a" font-weight="400" text-anchor="start">Disagreement is decomposed into which values a judge weights (orientation) and how strongly it applies them (calibration).</text><text x="16" y="244" font-family="-apple-system,BlinkMacSystemFont,Segoe UI,Helvetica Neue,Arial,sans-serif" font-size="9.5" fill="#8a8a8a" font-weight="400" text-anchor="start" font-style="italic">Schematic; the separation in b is what makes silent misalignment measurable.</text></svg>
